<svg width="25" height="24" viewBox="0 0 25 24" fill="none" xmlns="http://www.w3.org/2000/svg">
<path d="M18.5704 16.83L18.9604 19.99C19.0604 20.82 18.1704 21.4 17.4604 20.97L14.0004 18.91C13.7604 18.77 13.7004 18.47 13.8304 18.23C14.3304 17.31 14.6004 16.27 14.6004 15.23C14.6004 11.57 11.4604 8.59 7.60036 8.59C6.81036 8.59 6.04036 8.71 5.32036 8.95C4.95036 9.07 4.59036 8.73 4.68036 8.35C5.59036 4.71 9.09036 2 13.2704 2C18.1504 2 22.1004 5.69 22.1004 10.24C22.1004 12.94 20.7104 15.33 18.5704 16.83Z" fill="#5DC482"/>
<path d="M13.1 15.2298C13.1 16.4198 12.66 17.5198 11.92 18.3898C10.93 19.5898 9.35998 20.3598 7.59998 20.3598L4.98998 21.9098C4.54998 22.1798 3.98998 21.8098 4.04998 21.2998L4.29998 19.3298C2.95998 18.3998 2.09998 16.9098 2.09998 15.2298C2.09998 13.4698 3.03998 11.9198 4.47998 10.9998C5.36998 10.4198 6.43998 10.0898 7.59998 10.0898C10.64 10.0898 13.1 12.3898 13.1 15.2298Z" fill="#5DC482"/>
</svg>
